<svg xmlns="http://www.w3.org/2000/svg" xmlns:xlink="http://www.w3.org/1999/xlink" viewBox="0 0 105 100">
<path d="M27,56.2c4.4,19.7,23.6,33,42.5,28.3c-9,2.8-18.9,4.2-27.9,0.5c-13.1-5.2-22.6-17.4-24-31.6
	c-0.9-12.7,4.3-25,14.2-33c9.4-7.5,21.7-9,33-6.6C42.2,11.4,21.9,33.1,27,56.2 M87.5,49.7c0-2.4-0.2-5.1-0.8-7.5
	c-2-8.2-7.8-14.9-15.7-17.7c-8.2-2.6-17.5-1.3-24.1,3.9c-0.6,0.5-0.8,0.6-1,0.8c0.5-0.3,1-0.6,1.5-0.8c8.1-2.2,17.2,0,22.8,4.3
	c2.3,1.8,4.1,3.9,4.9,6.3c0.4,1,0.6,2.1,0.6,3.2c-12.2,1.6-24.3,3.2-36.5,4.3C55.3,47.3,71.4,49.7,87.5,49.7 M47.9,70.9
	c11,7.9,26.9,5,34.9-6.3c2-2.8,3.9-9,3.9-9S75.2,59.8,75,59.9C70.2,69.7,58.1,74.8,47.9,70.9"/>
</svg>
